<svg xmlns="http://www.w3.org/2000/svg" viewBox="0 0 25 31"><defs>
<style>.cls-1{fill:none;stroke:#8205ff;stroke-linecap:round;stroke-linejoin:round;}</style></defs>
<g id="Layer_2" data-name="Layer 2"><g id="Layer_1-2" data-name="Layer 1">
<path class="cls-1" d="M10.057,4.20583A18.049,18.049,0,0,0,7.40282,1.0797,2.209,2.209,0,0,0,4.41088,1.081a1.60666,1.60666,0,0,0-.33723,1.88936A29.34006,
29.34006,0,0,1,6.71287,9.73663"/>
<path class="cls-1" d="M19.6283,22.53012a19.12857,19.12857,0,0,0,.70281-6.92914c-.31284-2.08613-1.14132-3.21431-3.93167-2.67994l-.242.05905c.019.15654.03317.32322.0402.49915a6.21482,
6.21482,0,0,1-.03544.95487c-.06374.55721-.14018.987-.15855,1.07829a18.417,18.417,0,0,1-.86673,2.84588c-.43238,1.14629-.81422,1.93939-.81314,1.93717a26.48961,
26.48961,0,0,0,1.2878-3.30763,10.68894,10.68894,0,0,0,.58606-3.50858A3.81777,3.81777,0,0,0,13.40122,9.7925l-.2556-.05587L9.0192,17.83731c1.30692-2.56987,2.59887-5.147,
3.92571-7.7072a52.89958,52.89958,0,0,0,2.50784-5.82105,2.86465,2.86465,0,0,0,.14037-1.44418,1.69067,1.69067,0,0,0-1.15271-1.456,2.04283,2.04283,0,0,0-2.068.46072A16.27809,
16.27809,0,0,0,8.56855,6.78109a74.49127,74.49127,0,0,1-6.8453,11.14484c-1.92549,2.426-1.35532,4.484.17513,6.59581,2.11789,2.92242,5.34541,4.34037,8.74113,
5.36446a17.65128,17.65128,0,0,0,7.02879.46857,7.42783,7.42783,0,0,0,6.785-7.15537,16.09253,16.09253,0,0,0-.43-5.25334,3.83746,3.83746,0,0,0-1.2095-2.18579,3.41668,
3.41668,0,0,0-2.263-.60456"/></g></g></svg>