<svg xmlns="http://www.w3.org/2000/svg" viewBox="0 0 51.5 51.5021"><defs>
<style>.cls-1{fill:#efe6f8;}
.cls-2,.cls-8{fill:none;}
.cls-2{stroke:#1d1d1b;stroke-linecap:round;stroke-miterlimit:10;}
.cls-3{fill:#ede4e9;}
.cls-4,.cls-5{fill:#1d1d1b;}
.cls-4{opacity:0.11;}
.cls-5{opacity:0.12;}
.cls-6,.cls-7{fill:#fff;}
.cls-6{opacity:0.5;}
.cls-7{opacity:0.6;}
.cls-8{stroke:#b594d6;stroke-width:1.5px;}</style></defs>
<g id="Layer_2" data-name="Layer 2">
<g id="symmetrical">
<path class="cls-1" d="M23.75073.75c-7.07223.12547-12.62625.24031-16.70247,3-7.53129,5.0989-6.89683,17.431-5.23869,22.25a6.81116,6.81116,0,0,0,2.12255,3.43768c1.71851,1.34908,4.91965,2.09332,7.64752,1.9815a3.67474,3.67474,0,0,1,2.78012.65757,2.70826,2.70826,0,0,1,.71045,1.37683c.57035,3.31279-12.17538,7.053-12.10487,12.33535A3.37357,3.37357,0,0,0,4.3511,48.5605c1.24007.73948,3.06706.08631,4.15728-.69288,1.14167-.816,1.08588-1.88669,2.77153-3.4644a2.30435,2.30435,0,0,1,1.38576-.69288A2.62272,2.62272,0,0,1,15.04826,44.75c1.01217,1.535-1.01408,3.47972,0,5a2.69557,2.69557,0,0,0,2,1c2.12965.08646,3.73558-2.56148,4-3,.30114-.49941.53345-.9102.71984-1.25341.58435-1.07595.87515-1.61467.9819-1.74662.39374-.48667,1.192-1.00771,3-1,1.808-.00771,2.60626.51333,3,1,.10679.132.39849.6702.9819,1.74662.091.16795.34919.63872.71984,1.25341.26442.43852,1.87035,3.08646,4,3a2.69557,2.69557,0,0,0,2-1c1.01408-1.52028-1.01217-3.465,0-5a2.62272,2.62272,0,0,1,2.38259-1.03969,2.30432,2.30432,0,0,1,1.38576.69288c1.68565,1.57771,1.62986,2.64845,2.77153,3.4644,1.09023.77919,2.91721,1.43236,4.15728.69288A3.37357,3.37357,0,0,0,48.53466,45.789c.07051-5.28238-12.67522-9.02256-12.10487-12.33535a2.70832,2.70832,0,0,1,.71046-1.37683,3.67471,3.67471,0,0,1,2.78011-.65757c2.72787.11182,5.929-.63242,7.64752-1.9815a6.81116,6.81116,0,0,0,2.12255-3.43768c1.65814-4.819,2.29261-17.15112-5.23869-22.25C40.37552.99031,34.8215.87547,27.74927.75Z"/>
<path class="cls-2" d="M27.75,16.75105a2,2,0,0,1,4,0"/>
<path class="cls-2" d="M19.75,16.75105a2,2,0,0,1,4,0"/>
<path class="cls-2" d="M23.75,18.75105a2,2,0,0,0,4,0"/>
<g id="blush">
<circle class="cls-3" cx="38.97848" cy="21.39391" r="2.77152"/>
<circle class="cls-3" cx="12.52152" cy="21.39391" r="2.77152"/></g>
<g id="spots">
<circle class="cls-4" cx="39.3845" cy="12.02814" r="1.38576"/>
<circle class="cls-4" cx="42.15602" cy="13.4139" r="0.69288"/>
<circle class="cls-4" cx="40.07738" cy="14.79966" r="0.69288"/>
<circle class="cls-4" cx="15.27562" cy="39.91925" r="1.42671"/>
<circle class="cls-4" cx="17.58972" cy="42.37993" r="0.88739"/>
<circle class="cls-4" cx="33.77235" cy="33.6857" r="0.92345"/>
<circle class="cls-4" cx="32.85053" cy="37.76061" r="0.99837"/>
<circle class="cls-4" cx="31.54178" cy="35.45513" r="0.69288"/>
<circle class="cls-4" cx="11.84727" cy="26.49091" r="0.99837"/>
<circle class="cls-4" cx="13.15602" cy="28.7964" r="0.69288"/>
<circle class="cls-4" cx="21.3489" cy="5.26224" r="1.5"/>
<ellipse class="cls-4" cx="17.72872" cy="6.70086" rx="1.12019" ry="0.93862"/></g>
<g id="shading">
<path class="cls-5" d="M32.62732,1.09684A17.36018,17.36018,0,0,1,45.94245,16.86005a17.11436,17.11436,0,0,1-8.20308,15.03281c.973.06424,8.57854.47051,11.39072-4.04016,1.02085-1.63743,1.23465-3.63453,1.51786-6.3709a26.37605,26.37605,0,0,0-.13706-6.64709,22.7233,22.7233,0,0,0-2.02152-6.66689C44.85425,1.4416,33.47084,1.11124,32.62732,1.09684Z"/>
<path class="cls-6" d="M18.87268,1.09684A17.36017,17.36017,0,0,0,5.55756,16.86005a17.11435,17.11435,0,0,0,8.20307,15.03281c-.973.06424-8.57854.47051-11.39072-4.04016C1.34906,26.21527,1.13526,24.21817.85206,21.4818a26.37572,26.37572,0,0,1,.13705-6.64709A22.7236,22.7236,0,0,1,3.01063,8.16782C6.64576,1.4416,18.02916,1.11124,18.87268,1.09684Z"/>
<path class="cls-5" d="M35.75,33.75105a11.43679,11.43679,0,0,0,3,5c1.19873,1.13444,1.80487,1.1425,4,3,3.22225,2.72662,3.08408,3.6975,3,4a1.558,1.558,0,0,1-1,1c-1.67955.54824-3.67372-2.27065-4-2-.23641.19609.42279,1.99751,2,3,1.58361,1.00655,4.08646,1.20324,5,0,.74877-.98622.15437-2.58484,0-3-.98176-2.6404-3.59954-3.69273-8-7l-2-2Z"/>
<path class="cls-7" d="M15.75,33.75105a11.43679,11.43679,0,0,1-3,5c-1.19873,1.13444-1.80486,1.1425-4,3-3.22224,2.72662-3.08408,3.6975-3,4a1.558,1.558,0,0,0,1,1c1.67955.54824,3.67372-2.27065,4-2,.23641.19609-.42278,1.99751-2,3-1.58361,1.00655-4.08646,1.20324-5,0-.74877-.98622-.15437-2.58484,0-3,.98176-2.6404,3.59954-3.69273,8-7l2-2Z"/>
<path class="cls-6" d="M31.35208,48.75105c-.61743.32188-2.17128-4.25787-6-5a3.74468,3.74468,0,0,0-2,0c-2.59809.84289-2.17037,4.69119-5,6a3.118,3.118,0,0,1-3,0c-1.63826-1.23854-.288-5.01791,0-5,.27744.01725-.21055,3.57252,1,4,.646.22812,1.48841-.536,2-1,1.18961-1.079,1.34371-1.99757,2-3a6.519,6.519,0,0,1,5-3c2.92332-.04365,4.75581,2.63141,5,3C31.42029,46.36342,31.82229,48.50592,31.35208,48.75105Z"/>
<path class="cls-5" d="M39.1772,42.86231a3.51279,3.51279,0,0,0-3.72116.136,3.288,3.288,0,0,0-1.13736,2.5467c.016,1.401.99724,2.14337.56868,2.89286a1.429,1.429,0,0,1-1.01373.59341c-.271.03823-.6919.018-1.978-.86539-1.05106-.72189-1.355-1.11015-1.40935-1.06318-.13759.11884,1.21577,3.11578,3.43682,3.33791a2.83869,2.83869,0,0,0,2.522-1.01374c.74058-1.05485-.1154-2.10166.30494-3.67582A4.99431,4.99431,0,0,1,39.1772,42.86231Z"/></g>
<path class="cls-8" d="M23.75073.75c-7.07223.12547-12.62625.24031-16.70247,3-7.5313,5.0989-6.89683,17.431-5.23869,22.25a6.81116,6.81116,0,0,0,2.12255,3.43768c1.71851,1.34908,4.91965,2.09332,7.64752,1.9815a3.67474,3.67474,0,0,1,2.78012.65757,2.70826,2.70826,0,0,1,.71045,1.37683c.57035,3.31279-12.17538,7.053-12.10487,12.33535A3.37357,3.37357,0,0,0,4.3511,48.5605c1.24007.73948,3.06705.08631,4.15728-.69288,1.14167-.816,1.08588-1.88669,2.77153-3.4644a2.3044,2.3044,0,0,1,1.38576-.69288A2.62272,2.62272,0,0,1,15.04826,44.75c1.01217,1.535-1.01408,3.47972,0,5a2.69557,2.69557,0,0,0,2,1c2.12965.08646,3.73558-2.56148,4-3,.30114-.49941.53345-.9102.71984-1.25341.58435-1.07595.87514-1.61467.9819-1.74662.39374-.48667,1.192-1.00771,3-1,1.808-.00771,2.60626.51333,3,1,.10679.132.39849.6702.9819,1.74662.091.16795.34919.63872.71984,1.25341.26442.43852,1.87035,3.08646,4,3a2.69557,2.69557,0,0,0,2-1c1.01408-1.52028-1.01217-3.465,0-5a2.62272,2.62272,0,0,1,2.38259-1.03969,2.30438,2.30438,0,0,1,1.38576.69288c1.68565,1.57771,1.62986,2.64845,2.77153,3.4644,1.09023.77919,2.91721,1.43236,4.15728.69288A3.37357,3.37357,0,0,0,48.53466,45.789c.07051-5.28238-12.67522-9.02256-12.10487-12.33535a2.70832,2.70832,0,0,1,.71046-1.37683,3.67471,3.67471,0,0,1,2.78011-.65757c2.72787.11182,5.929-.63242,7.64752-1.9815a6.81116,6.81116,0,0,0,2.12255-3.43768c1.65814-4.819,2.29261-17.15112-5.23869-22.25C40.37552.99031,34.8215.87547,27.74927.75Z"/></g></g></svg>