<svg xmlns="http://www.w3.org/2000/svg" viewBox="0 0 61.58988 61.58988"><defs>
<style>.cls-1{fill:#efe6f8;}.cls-2{fill:#ffd3db;}.cls-3,.cls-4{fill:none;stroke-width:1.5px;}.cls-3{stroke:#3c3c3b;stroke-linecap:round;stroke-miterlimit:10;}.cls-4{stroke:#5900b2;}.cls-5,.cls-6{fill-opacity:0.1;}.cls-6{fill:#2d2d2d;}</style>
</defs>

  <circle class="cls-1" cx="30.79494" cy="30.79494" r="30.04493"/>
  <path class="cls-2" d="M46.32287,44.1018c.52426-1.58046-.88916-3.46641-3.15724-4.21222s-4.53174-.06919-5.05613,1.51139.889,3.46632,3.157,4.21222S45.79817,
  45.68242,46.32287,44.1018Z"/>
  <path class="cls-2" d="M17.19857,34.80711c.59933-1.80635-.75339-3.87532-3.02139-4.62117s-4.59247.11391-5.19181,1.92026.75339,3.87532,3.02144,
  4.62118S16.59924,36.61351,17.19857,34.80711Z"/>
  <path class="cls-3" d="M27.5359,32.11718a2.1532,2.1532,0,0,0,1.37453,2.72107,2.16218,2.16218,0,0,0,2.73209-1.37062"/>
  <path class="cls-3" d="M24.44667,27.70048a2.16149,2.16149,0,1,1,4.10662,1.35046"/>
  <path class="cls-3" d="M32.65987,30.40135a2.16147,2.16147,0,1,1,4.10658,1.35045"/>
  <circle class="cls-4" cx="30.79494" cy="30.79494" r="30.04494"/>
  <circle class="cls-5" cx="26.84156" cy="12.94215" r="3.26575"/>
  <circle class="cls-5" cx="35.1148" cy="54.7438" r="1.95945"/>
  <circle class="cls-5" cx="39.03371" cy="52.56663" r="1.08858"/>
  <circle class="cls-5" cx="52.96759" cy="17.29649" r="1.08858"/>
  <circle class="cls-5" cx="55.36248" cy="21.86854" r="1.74174"/>
  <circle class="cls-5" cx="56.66878" cy="27.96462" r="1.74174"/>
  <circle class="cls-5" cx="31.1959" cy="18.60279" r="1.08858"/>
  <circle class="cls-5" cx="32.93763" cy="12.50671" r="1.08858"/>
  <circle class="cls-5" cx="22.05179" cy="16.42562" r="1.08858"/>
  <path class="cls-6" d="M15.14681,56.64209C17.47413,56.229,33.345,53.13176,42.486,37.76506,51.43981,22.713,46.9497,7.634,46.21837,
  5.3221c0,0,25.31612,15.37042,10.838,40.44741A30.7529,30.7529,0,0,1,43.93538,58.36877C30.42055,64.82476,16.71735,57.51275,15.14681,56.64209Z"/>
</svg>