<svg xmlns="http://www.w3.org/2000/svg" viewBox="0 0 40.87 4.46"><defs>
<style>.cls-1{fill:#fff;}.cls-2{fill:#c2d500;}</style></defs>

<path class="cls-1" d="M1.38,1.28A1.32,1.32,0,0,1,2.31.92a1.39,1.39,0,0,1,1.13.57L4,.81A2.28,2.28,0,0,0,2.26,0,2.22,2.22,0,0,0,.66.64,2.14,2.14,
  0,0,0,0,2.24,2.13,2.13,0,0,0,.65,3.83a2.24,2.24,0,0,0,1.64.63A2.24,2.24,0,0,0,4,3.63L3.4,3a1.41,1.41,0,0,1-1.16.56,1.21,1.21,0,0,1-.88-.36,
  1.3,1.3,0,0,1-.36-1A1.21,1.21,0,0,1,1.38,1.28Zm6.75.62H6.41V.1h-1V4.41h1V2.71H8.13v1.7h1V.1h-1Zm10.51.57L17.52.09h-1.3V4.41h1V1.69l1.16,
  2.36h.57l1.17-2.36V4.41h1V.1h-1.3Zm15.8,1.94h1V.1h-1ZM24.88,0a2.23,2.23,0,0,0-1.61.64,2.14,2.14,0,0,0-.66,1.59,2.1,2.1,0,0,0,.66,1.59,2.35,2.35,
  0,0,0,3.22,0,2.1,2.1,0,0,0,.66-1.59A2.14,2.14,0,0,0,26.49.64,2.22,2.22,0,0,0,24.88,0Zm.91,3.21a1.19,1.19,0,0,1-.91.41,1.16,1.16,0,0,1-.9-.41,
  1.38,1.38,0,0,1-.38-1,1.44,1.44,0,0,1,.38-1,1.2,1.2,0,0,1,1.81,0,1.42,1.42,0,0,1,.37,1A1.38,1.38,0,0,1,25.79,3.21Zm13.62-1L40.75.1H39.59l-.82,
  1.28L38,.1H36.8l1.35,2.1L36.71,4.41h1.16L38.78,3l.92,1.42h1.17Zm-7.71.7L29.58.1h-.9V4.41h1V1.71l2.06,2.7h1V.1h-1Z"/>

<path class="cls-2" d="M13.38.13h0v0h-.87a.51.51,0,0,0-.46.31l-1.73,4h1l1.73-4A.49.49,0,0,1,13.38.13Zm.07.77a.07.07,0,0,0-.14,0l-.44,1L14,4.43h1Z"/>
</svg>