<svg class="fill-current" alt="Lot Fourteen Logo" focusable="false" version="1.1" 
id="Layer_1_639c060eae419" xmlns="http://www.w3.org/2000/svg" xmlns:xlink="http://www.w3.org/1999/xlink" 
x="0px" y="0px" width="51" height="48" viewBox="0 0 51 48" style="enable-background:new 0 0 51 48;" xml:space="preserve">
<style>.cls-1{fill:#fff;}</style>
<path class="cls-1" d="M9.8,9.8h-6V0.2H1.5v11.7h8.2V9.8z"></path>
<path class="cls-1" d="M18.4,0c-1.2,0-2.3,0.4-3.2,1.3c-1.4,1.3-1.5,3.1-1.5,4.8c0,1.7,0.1,3.5,1.5,4.8c0.9,0.9,2,1.3,3.2,1.3s2.3-0.4,3.2-1.3 c1.4-1.3,
1.5-3.1,1.5-4.8c0-1.7-0.1-3.5-1.5-4.8C20.7,0.4,19.6,0,18.4,0z M16.1,6c0-1.1,0-2.4,0.8-3.1c0.5-0.5,1-0.7,1.6-0.7 c0.6,0,1.2,0.2,1.6,
0.7c0.8,0.8,0.8,2.1,0.8,3.1v0.2c0,1.1,0,2.4-0.8,3.1c-0.5,0.5-1,0.7-1.6,0.7c-0.6,0-1.2-0.2-1.6-0.7 c-0.8-0.8-0.8-2.1-0.8-3.1V6z"></path>
<path class="cls-1" d="M27.3,2.3h3.8v9.6h2.2V2.3h3.8V0.2h-9.8V2.3z"></path>
<path class="cls-1" d="M50.1,11.2h-8.3v2h8.3V11.2z"></path>
<path class="cls-1" d="M18.4,18.2c-1.2,0-2.3,0.4-3.2,1.3c-1.4,1.3-1.5,3.1-1.5,4.8c0,1.7,0.1,3.5,1.5,4.8c0.9,0.9,2,1.3,3.2,1.3s2.3-0.4,3.2-1.3 c1.4-1.3,
1.5-3.1,1.5-4.8c0-1.7-0.1-3.5-1.5-4.8C20.7,18.7,19.6,18.2,18.4,18.2z M16.1,24.2c0-1,0-2.4,0.8-3.1 c0.5-0.5,1-0.7,1.6-0.7c0.6,0,1.2,0.2,
1.6,0.7c0.8,0.8,0.8,2.1,0.8,3.1v0.2c0,1.1,0,2.4-0.8,3.1c-0.5,0.5-1,0.7-1.6,0.7 c-0.6,0-1.2-0.2-1.6-0.7c-0.8-0.8-0.8-2.1-0.8-3.1V24.2z"></path>
<path class="cls-1" d="M27.9,18.4v7.3c0,2.9,1.6,4.6,4.3,4.6c2.7,0,4.3-1.7,4.3-4.6v-7.3h-2.2v7.4c0,1.7-0.7,2.5-2.1,2.5c-1.4,0-2.1-0.8-2.1-2.5 v-7.4H27.9z"></path>
<path class="cls-1" d="M50,22c0-1-0.3-1.8-1-2.5c-0.7-0.7-1.8-1.1-3.1-1.1h-4.2v11.7H44v-4.5h1.9l2.1,4.5h2.4l-2.3-5c0.4-0.2,0.8-0.4,1.1-0.7 C49.8,23.7,50,23,50,
22z M47.8,22c0,1-0.6,1.5-1.8,1.5h-2v-3h2C47.2,20.5,47.8,21,47.8,22z"></path>
<path class="cls-1" d="M0,38.4h3.8V48H6v-9.6h3.8v-2.1H0V38.4z"></path>
<path class="cls-1" d="M14.4,48h8.2v-2.1h-5.9v-3h4.5v-2.1h-4.5v-2.5h5.9v-2.1h-8.2V48z"></path>
<path class="cls-1" d="M28.2,48h8.2v-2.1h-5.9v-3h4.5v-2.1h-4.5v-2.5h5.9v-2.1h-8.2V48z"></path>
<path class="cls-1" d="M47.9,43.8l-3.8-7.5h-2.4V48h2.2v-7.5l3.8,7.5h2.4V36.3h-2.2V43.8z"></path>
<path class="cls-1" d="M3.7,25.3h5.4v-2.1H3.7v-2.7h6v-2.1H1.5v11.7h2.2V25.3z"></path>
</svg>